<svg width="199" height="33" viewBox="0 0 199 33" fill="none" xmlns="http://www.w3.org/2000/svg">
<rect width="199" height="33" fill="white"/>
<g clip-path="url(#clip0_2305_17975)">
<path d="M20.9534 23.6729L23.176 28.145H28.1945L25.9377 23.6729H20.9534Z" fill="#181717"/>
<path d="M16.4554 4.71191L4.72168 28.1442H9.70869L11.7051 24.2156L13.5357 20.5601L16.4554 14.7539L19.4565 20.7755H24.5014L16.4554 4.71191Z" fill="#F58220"/>
<path d="M72.4648 8.90283C67.4489 8.90283 63.3667 13.2306 63.3667 18.5509C63.3667 23.8713 67.4489 28.1991 72.4648 28.1991C77.4808 28.1991 81.563 23.8713 81.563 18.5509C81.563 13.2306 77.4808 8.90283 72.4648 8.90283ZM77.7359 18.5509C77.7359 21.6549 75.3713 24.1812 72.4648 24.1812C69.5584 24.1812 67.1938 21.6549 67.1938 18.5509C67.1938 15.4469 69.5584 12.9207 72.4648 12.9207C75.3713 12.9207 77.7359 15.4469 77.7359 18.5509Z" fill="#181717"/>
<path d="M40.8223 19.5609C40.8223 22.0819 38.8811 24.1302 36.4981 24.1302C34.1151 24.1302 32.1923 22.0793 32.1923 19.5609V9.34033H28.3679V19.5609C28.3679 24.2957 32.0135 28.1455 36.4981 28.1455C40.9827 28.1455 44.6467 24.2931 44.6467 19.5609V9.34033H40.8223V19.5609Z" fill="#181717"/>
<path d="M46.2249 13.2241H52.164V28.1427H56.0726V13.2241H62.0092V9.32178H46.2249V13.2241Z" fill="#181717"/>
<path d="M115.83 28.1431H120.052L121.698 24.9079L123.187 21.9299L125.499 17.3343L130.923 28.1431H135.168L125.499 8.83643L115.83 28.1431Z" fill="#181717"/>
<path d="M156.289 28.143H160.516L162.162 24.9025L163.656 21.9219L165.971 17.3185L171.402 28.143H175.653L165.971 8.81006L156.289 28.143Z" fill="#181717"/>
<path d="M140.754 9.30322H136.843V28.1451H149.548V24.2376H140.754V9.30322Z" fill="#181717"/>
<path d="M189.741 21.7036C190.622 21.1705 191.369 20.4221 191.921 19.5161C192.568 18.4526 192.91 17.2209 192.91 15.9552C192.91 12.2971 190.077 9.32178 186.592 9.32178H177.284V28.1453H181.192V22.5886H185.714L189.63 28.1453H194.281L189.743 21.7036H189.741ZM181.192 13.3239H186.495C187.876 13.3239 189.002 14.503 189.002 15.9526C189.002 17.4021 187.878 18.5812 186.495 18.5812H181.192V13.3213V13.3239Z" fill="#181717"/>
<path d="M154.727 9.35107H150.823V28.1457H154.727V9.35107Z" fill="#181717"/>
<path d="M97.4471 4.85645L85.7844 28.1443H90.7425L92.7284 24.242L94.5459 20.6075L97.4445 14.8459L100.427 20.8255H105.443L97.4471 4.85645Z" fill="#181717"/>
<path d="M100.354 4.81592L112.016 28.1011L114.525 23.1221L105.343 4.81592H100.354Z" fill="#181717"/>
<path d="M119.57 12.912H119.573L119.838 12.3816L119.983 12.0953H119.98L121.798 8.4635H121.795L123.608 4.81592H118.649L116.714 8.6552L114.964 12.0953L112.689 16.5412H117.742L119.57 12.912Z" fill="#F58220"/>
<path d="M101.724 23.7988L103.951 28.2841H108.983L106.721 23.7988H101.724Z" fill="#F58220"/>
</g>
<defs>
<clipPath id="clip0_2305_17975">
<rect width="189.556" height="23.5714" fill="white" transform="translate(4.72168 4.71338)"/>
</clipPath>
</defs>
</svg>
