<svg width="152" height="19" viewBox="0 0 152 19" fill="none" xmlns="http://www.w3.org/2000/svg">
<g clip-path="url(#clip0_2373_2354)">
<path d="M13 15L14.8416 19H19L17.13 15H13Z" fill="white"/>
<path d="M9.49149 0L0 19H4.03404L5.64894 15.8145L7.12979 12.8505L9.49149 8.14255L11.9191 13.0251H16L9.49149 0Z" fill="white"/>
<path d="M54.5 3C50.3651 3 47 6.58846 47 11C47 15.4115 50.3651 19 54.5 19C58.6349 19 62 15.4115 62 11C62 6.58846 58.6349 3 54.5 3ZM58.8452 11C58.8452 13.5738 56.8959 15.6685 54.5 15.6685C52.1041 15.6685 50.1548 13.5738 50.1548 11C50.1548 8.42624 52.1041 6.33152 54.5 6.33152C56.8959 6.33152 58.8452 8.42624 58.8452 11Z" fill="white"/>
<path d="M28.9459 12.1525C28.9459 14.1634 27.3957 15.7972 25.4926 15.7972C23.5896 15.7972 22.0541 14.1613 22.0541 12.1525V4H19V12.1525C19 15.9292 21.9113 19 25.4926 19C29.074 19 32 15.9271 32 12.1525V4H28.9459V12.1525Z" fill="white"/>
<path d="M33 7.11009H37.8915V19H41.1106V7.11009H46V4H33V7.11009Z" fill="white"/>
<path d="M89 19H92.4929L93.8553 16.3188L95.087 13.8509L97 10.0424L101.487 19H105L97 3L89 19Z" fill="white"/>
<path d="M122 19H125.493L126.853 16.3181L128.087 13.8514L130 10.0416L134.488 19H138L130 3L122 19Z" fill="white"/>
<path d="M109.079 4H106V19H116V15.8892H109.079V4Z" fill="white"/>
<path d="M148.261 13.8668C148.986 13.442 149.602 12.8456 150.057 12.1236C150.59 11.2761 150.871 10.2946 150.871 9.28599C150.871 6.37095 148.538 4 145.667 4H138V19H141.219V14.572H144.944L148.17 19H152L148.263 13.8668H148.261ZM141.219 7.18917H145.587C146.725 7.18917 147.652 8.12877 147.652 9.2839C147.652 10.439 146.727 11.3786 145.587 11.3786H141.219V7.18708V7.18917Z" fill="white"/>
<path d="M120 4H117V19H120V4Z" fill="white"/>
<path d="M74.4921 0L65 19H69.0353L70.6516 15.8162L72.1309 12.8509L74.49 8.1502L76.9176 13.0288H81L74.4921 0Z" fill="white"/>
<path d="M77 0L86.0523 19L88 14.9373L80.8729 0H77Z" fill="white"/>
<path d="M92.6719 6.21433H92.6741L92.893 5.80717L93.0123 5.58746H93.0101L94.5083 2.79978H94.5061L96 0H91.913L90.3173 2.94692L88.8755 5.58746L87 9H91.165L92.6719 6.21433Z" fill="white"/>
<path d="M78 15L79.8413 19H84L82.1304 15H78Z" fill="white"/>
</g>
<defs>
<clipPath id="clip0_2373_2354">
<rect width="152" height="19" fill="white"/>
</clipPath>
</defs>
</svg>
