<svg width="124" height="42" viewBox="0 0 124 42" fill="none" xmlns="http://www.w3.org/2000/svg">
<g clip-path="url(#clip0_1877_42779)">
<g filter="url(#filter0_ddd_1877_42779)">
<path d="M119.688 0H3.31154C1.48263 0 0 1.49412 0 3.33721V37.6628C0 39.5059 1.48263 41 3.31154 41H119.688C121.517 41 123 39.5059 123 37.6628V3.33721C123 1.49412 121.517 0 119.688 0Z" stroke="currentColor"/>
<path fill-rule="evenodd" clip-rule="evenodd" d="M40.0315 18.6876C40.0315 15.4381 42.6834 12.762 45.9035 12.762C47.6083 12.762 48.9342 13.431 49.8813 14.3867L48.7448 15.6292C48.3697 15.2582 47.9255 14.9659 47.4378 14.769C46.9502 14.5722 46.4287 14.4747 45.9035 14.4823C43.5358 14.4823 41.7363 16.3938 41.7363 18.7832C41.721 19.609 41.947 20.421 42.3862 21.1179C42.8253 21.8149 43.4581 22.3659 44.2055 22.7023C44.953 23.0387 45.7821 23.1455 46.5893 23.0094C47.3966 22.8734 48.1462 22.5004 48.7448 21.9372C49.2184 21.4593 49.5025 20.7903 49.6919 19.9301H45.9035V18.3053H51.2073V19.2611C51.2073 20.5035 50.9231 22.0328 49.8813 23.0841C49.3707 23.6245 48.7518 24.0489 48.0659 24.329C47.38 24.6092 46.6429 24.7387 45.9035 24.7089C44.3538 24.6842 42.8743 24.052 41.7784 22.946C40.6824 21.84 40.0559 20.3471 40.0315 18.7832V18.6876ZM55.4692 16.9673C54.4645 16.9673 53.5009 17.3701 52.7904 18.087C52.08 18.804 51.6808 19.7764 51.6808 20.7903C51.6808 21.8042 52.08 22.7766 52.7904 23.4935C53.5009 24.2105 54.4645 24.6133 55.4692 24.6133C56.474 24.6133 57.4376 24.2105 58.148 23.4935C58.8585 22.7766 59.2576 21.8042 59.2576 20.7903C59.2576 19.7764 58.8585 18.804 58.148 18.087C57.4376 17.3701 56.474 16.9673 55.4692 16.9673ZM55.4692 23.1797C54.3327 23.1797 53.3856 22.2239 53.3856 20.7903C53.3856 19.4522 54.3327 18.4965 55.4692 18.4965C56.6057 18.4965 57.5528 19.4522 57.5528 20.7903C57.5528 22.2239 56.6057 23.1797 55.4692 23.1797ZM63.6143 16.9673C62.626 16.9922 61.6866 17.406 60.9965 18.1202C60.3064 18.8345 59.9203 19.7927 59.9206 20.7903C59.9206 21.8042 60.3197 22.7766 61.0302 23.4935C61.7406 24.2105 62.7042 24.6133 63.709 24.6133C64.6972 24.5883 65.6367 24.1746 66.3268 23.4603C67.0169 22.746 67.403 21.7879 67.4027 20.7903C67.4027 19.7764 67.0035 18.804 66.2931 18.087C65.5826 17.3701 64.619 16.9673 63.6143 16.9673ZM63.6143 23.1797C62.5725 23.1797 61.5307 22.2239 61.5307 20.7903C61.5307 19.4522 62.4778 18.4965 63.6143 18.4965C64.7508 18.4965 65.7926 19.4522 65.7926 20.7903C65.7926 22.2239 64.8455 23.1797 63.6143 23.1797ZM73.6535 17.254V17.8274C73.2747 17.4451 72.517 16.9673 71.6646 16.9673C69.7704 16.9673 68.0657 18.6876 68.0657 20.7903C68.0644 21.7719 68.4375 22.7164 69.1075 23.4282C69.7775 24.1399 70.6931 24.5642 71.6646 24.6133C72.6117 24.6133 73.2747 24.231 73.5588 23.7531H73.6535V24.3266C73.6535 25.7602 72.8959 26.6204 71.7593 26.6204C70.7175 26.6204 70.0546 25.8558 69.8651 25.1867L68.3498 25.8558C68.8233 26.8115 69.8651 28.054 71.6646 28.054C73.5588 28.054 75.2636 26.9071 75.2636 24.1354V17.254H73.6535ZM71.7593 23.1797C70.7175 23.1797 69.7704 22.2239 69.7704 20.8859C69.7704 19.4522 70.7175 18.4965 71.854 18.4965C72.8959 18.4965 73.7482 19.4522 73.7482 20.8859C73.7482 22.1283 72.8959 23.1797 71.854 23.1797H71.7593ZM76.4001 13.1443H78.0102V24.4221H76.4001V13.1443ZM82.5563 23.2752C82.177 23.288 81.8027 23.1854 81.4818 22.9809C81.161 22.7764 80.9084 22.4794 80.7568 22.1283L85.7764 19.9301L85.587 19.5478C85.3029 18.592 84.3558 17.0628 82.4616 17.0628C80.5674 17.0628 78.8626 18.6876 78.8626 20.8859C78.8626 23.0841 80.4726 24.7089 82.651 24.7089C84.3558 24.7089 85.3029 23.7531 85.6817 23.0841L84.4505 22.1283C83.9769 22.7974 83.5034 23.2752 82.5563 23.2752ZM82.5563 18.4965C83.1245 18.4965 83.6928 18.8788 83.8822 19.4522L80.5674 20.7903C80.5674 19.3566 81.6092 18.592 82.4616 18.592L82.5563 18.4965ZM92.9744 13.2398H89.0913V24.5177H90.7013V20.2168H92.9744C94.8686 20.2168 96.5734 18.8788 96.5734 16.7761C96.5734 14.5779 94.7739 13.2398 92.9744 13.2398ZM92.9744 18.6876H90.7013V14.8646H93.0691C94.2056 14.8646 94.9633 15.8204 94.9633 16.7761C94.9633 17.6363 94.2056 18.6876 93.0691 18.6876H92.9744ZM99.1305 24.5177V13.1443H97.5205V24.4221H99.1305V24.5177ZM106.518 24.5177V20.2168C106.518 18.2097 105.003 17.0628 103.108 17.0628C101.972 17.0628 100.741 17.6363 100.267 18.7832L101.688 19.4522C101.972 18.7832 102.635 18.592 103.203 18.592C104.055 18.592 104.908 19.0699 104.908 20.0257V20.1213C104.624 20.0257 103.961 19.7389 103.203 19.7389C101.593 19.7389 99.9829 20.6947 99.9829 22.2239C99.9829 23.7531 101.309 24.7089 102.824 24.7089C103.771 24.7089 104.434 24.231 104.813 23.6575V24.5177H106.518ZM102.919 23.2752C102.445 23.2752 101.688 22.9885 101.688 22.3195C101.688 21.3637 102.635 21.077 103.392 21.077C103.923 21.0591 104.448 21.1915 104.908 21.4593C104.813 22.4151 103.961 23.2752 103.014 23.2752H102.919ZM112.201 17.3496L110.306 22.1283L108.412 17.3496H106.518L109.549 24.1354L107.844 27.9584H109.549L114 17.3496H112.295H112.201ZM10.3873 8.26993C10.0989 8.65207 9.96361 9.12977 10.0084 9.60798V30.4434C10.0084 31.0168 10.1978 31.3991 10.482 31.6858V31.7814L21.8472 20.1213V19.8345L10.482 8.26993H10.3873ZM27.4351 24.0398L23.6467 20.2168V19.8345L27.4351 16.0115L31.9811 18.6876C33.2124 19.3566 33.2124 20.5991 31.9811 21.3637L27.5298 23.9443L27.4351 24.0398ZM26.5827 24.9L22.7943 20.8859L11.3344 32.6416C11.7132 33.1195 12.4709 33.1195 13.2286 32.6416L26.5827 24.9ZM26.5827 15.1513L13.2286 7.31418C12.4709 6.8363 11.7132 6.93188 11.3344 7.40975L22.6996 19.1655L26.5827 15.1513Z" fill="currentColor"/>
</g>
</g>
<defs>
<filter id="filter0_ddd_1877_42779" x="-8.46833" y="-4.48417" width="139.937" height="57.9367" filterUnits="userSpaceOnUse" color-interpolation-filters="sRGB">
<feFlood flood-opacity="0" result="BackgroundImageFix"/>
<feColorMatrix in="SourceAlpha" type="matrix" values="0 0 0 0 0 0 0 0 0 0 0 0 0 0 0 0 0 0 127 0" result="hardAlpha"/>
<feOffset/>
<feGaussianBlur stdDeviation="0.474306"/>
<feColorMatrix type="matrix" values="0 0 0 0 0.113725 0 0 0 0 0.137255 0 0 0 0 0.152941 0 0 0 0.04 0"/>
<feBlend mode="normal" in2="BackgroundImageFix" result="effect1_dropShadow_1877_42779"/>
<feColorMatrix in="SourceAlpha" type="matrix" values="0 0 0 0 0 0 0 0 0 0 0 0 0 0 0 0 0 0 127 0" result="hardAlpha"/>
<feOffset/>
<feGaussianBlur stdDeviation="0.948611"/>
<feColorMatrix type="matrix" values="0 0 0 0 0.113725 0 0 0 0 0.137255 0 0 0 0 0.152941 0 0 0 0.06 0"/>
<feBlend mode="normal" in2="effect1_dropShadow_1877_42779" result="effect2_dropShadow_1877_42779"/>
<feColorMatrix in="SourceAlpha" type="matrix" values="0 0 0 0 0 0 0 0 0 0 0 0 0 0 0 0 0 0 127 0" result="hardAlpha"/>
<feOffset dy="3.98417"/>
<feGaussianBlur stdDeviation="3.98417"/>
<feColorMatrix type="matrix" values="0 0 0 0 0.113725 0 0 0 0 0.137255 0 0 0 0 0.152941 0 0 0 0.08 0"/>
<feBlend mode="normal" in2="effect2_dropShadow_1877_42779" result="effect3_dropShadow_1877_42779"/>
<feBlend mode="normal" in="SourceGraphic" in2="effect3_dropShadow_1877_42779" result="shape"/>
</filter>
<clipPath id="clip0_1877_42779">
<rect width="124" height="42" fill="white"/>
</clipPath>
</defs>
</svg>
