<svg width="5" height="8" viewBox="0 0 5 8" fill="currentColor" xmlns="http://www.w3.org/2000/svg">
<path d="M-9.03041e-07 7.09948V7.91539C-9.03041e-07 7.98611 0.0808815 8.02516 0.135503 7.98189L4.87078 4.26546C4.91102 4.23402 4.94357 4.19376 4.96597 4.14776C4.98836 4.10175 5 4.05121 5 4C5 3.94879 4.98836 3.89825 4.96597 3.85224C4.94357 3.80624 4.91102 3.76598 4.87078 3.73454L0.135503 0.0181135C0.0798311 -0.0251622 -9.03041e-07 0.0138913 -9.03041e-07 0.08461V0.900515C-9.03041e-07 0.952234 0.0241584 1.00184 0.0640743 1.03351L3.84558 3.99947L0.0640743 6.96649C0.0241584 6.99816 -9.03041e-07 7.04777 -9.03041e-07 7.09948V7.09948Z" fill="currentColor"/>
</svg>
