<svg width="36" height="36" viewBox="0 0 36 36" fill="none" xmlns="http://www.w3.org/2000/svg">
<path d="M30.2788 12.3312H34.4521C35.2311 12.3312 35.865 11.6973 35.865 10.9183V9.14474C35.865 8.36576 35.2311 7.73186 34.4521 7.73186H32.042L18.4121 0.196079C18.2607 0.112375 18.077 0.112375 17.9257 0.196079L4.29704 7.7312H1.81181C1.03282 7.7312 0.398922 8.36507 0.398922 9.14408V10.9177C0.398922 11.6967 1.0328 12.3306 1.81181 12.3306H6.17432C6.3 14.617 6.36428 17.0201 6.36428 19.4855C6.36428 22.2162 6.28653 24.8608 6.13363 27.3557H5.43313C4.57665 27.3557 3.88006 28.0523 3.88006 28.9087V30.975H1.95177C1.09529 30.975 0.398438 31.6715 0.398438 32.528V34.0459C0.398438 34.9023 1.09503 35.5992 1.95177 35.5992H34.312C35.1685 35.5992 35.8651 34.9026 35.8651 34.0459V32.528C35.8651 31.6715 35.1685 30.975 34.312 30.975H32.384V28.9087C32.384 28.0523 31.6874 27.3557 30.8309 27.3557H30.3197C30.1665 24.8611 30.089 22.216 30.089 19.4855C30.0885 17.0205 30.153 14.6166 30.279 12.3306L30.2788 12.3312ZM34.8601 9.14448V10.9181C34.8601 11.143 34.6771 11.326 34.4521 11.326H24.7695C24.7112 10.3982 24.4612 9.52179 24.0582 8.7363H34.4513C34.6762 8.73656 34.8594 8.91952 34.8594 9.14446L34.8601 9.14448ZM26.1785 19.4865C26.1785 22.2164 26.1008 24.8615 25.9479 27.3567H23.7146C23.5614 24.8613 23.4839 22.2167 23.4839 19.4865C23.4839 18.1814 23.5026 16.8766 23.5386 15.6042C24.2142 14.6666 24.6504 13.5453 24.7576 12.3314H25.9886C26.1138 14.6171 26.1786 17.0205 26.1786 19.4864L26.1785 19.4865ZM10.5053 27.356C10.3521 24.8614 10.2746 22.2163 10.2746 19.4859C10.2746 17.0203 10.3391 14.617 10.4646 12.3309H11.5815C11.6945 13.6145 12.176 14.7941 12.919 15.763C12.9519 16.9846 12.9692 18.2358 12.9692 19.4859C12.9692 22.216 12.8915 24.8612 12.7381 27.3561L10.5053 27.356ZM23.7783 11.7457C23.7783 14.8387 21.2619 17.3548 18.1693 17.3548C15.0763 17.3548 12.5603 14.8384 12.5603 11.7457C12.5603 8.65282 15.0766 6.13673 18.1693 6.13673C21.2622 6.13673 23.7783 8.65282 23.7783 11.7457ZM13.9491 16.8344C14.521 17.3097 15.1735 17.6903 15.8833 17.9524C15.8779 18.4624 15.8745 18.9763 15.8745 19.486C15.8745 22.2143 15.9515 24.8586 16.1036 27.3561H13.7461C13.8983 24.859 13.9752 22.2141 13.9752 19.486C13.9745 18.5995 13.9656 17.7121 13.9491 16.8344H13.9491ZM17.1104 27.3562C16.9572 24.8611 16.8792 22.2162 16.8792 19.4861C16.8792 19.0701 16.8818 18.6516 16.8854 18.2341C17.3011 18.3163 17.7302 18.3595 18.1695 18.3595C18.6494 18.3595 19.1172 18.3077 19.5681 18.2103C19.572 18.6348 19.5738 19.0616 19.5738 19.4858C19.5738 22.2165 19.4961 24.8611 19.3432 27.356H17.1104L17.1104 27.3562ZM20.5703 17.9091C21.284 17.63 21.9378 17.2306 22.5064 16.7357C22.4885 17.6455 22.4789 18.5658 22.4789 19.4865C22.4789 22.2146 22.5559 24.8592 22.708 27.3567H20.3505C20.5027 24.8598 20.5796 22.2152 20.5796 19.4865C20.5794 18.9612 20.5763 18.4325 20.5703 17.9091H20.5703ZM18.1695 1.21084L29.9644 7.73179H23.4222C22.2126 6.15252 20.3081 5.13225 18.1695 5.13225C16.031 5.13225 14.1266 6.15226 12.9169 7.73179H6.37467L18.1695 1.21084ZM1.40354 10.918V9.14441C1.40354 8.91947 1.5865 8.73652 1.81143 8.73652H12.2802C11.877 9.522 11.6274 10.3987 11.5688 11.3262H1.8119C1.5867 11.3259 1.40348 11.1432 1.40348 10.918L1.40354 10.918ZM7.18099 12.3311H9.45811C9.33346 14.6191 9.26972 17.0223 9.26972 19.4861C9.26972 22.2147 9.34669 24.859 9.4988 27.3563H7.14134C7.29346 24.8594 7.37043 22.2148 7.37043 19.4861C7.36991 17.0224 7.30564 14.6191 7.18099 12.3311H7.18099ZM34.8602 32.529V34.0468C34.8602 34.349 34.6145 34.5949 34.3121 34.5949L1.95181 34.5946C1.64964 34.5946 1.40371 34.349 1.40371 34.0465V32.5287C1.40371 32.2265 1.64938 31.9806 1.95181 31.9806H34.3121C34.614 31.9809 34.8602 32.2268 34.8602 32.529ZM31.3788 28.9097V30.9759H4.8851V28.9097C4.8851 28.6075 5.13077 28.3616 5.43319 28.3616H30.8302C31.1324 28.3613 31.3786 28.6075 31.3786 28.9097H31.3788ZM26.9551 27.3563C27.1072 24.8587 27.1842 22.2143 27.1842 19.4862C27.1842 17.0222 27.1204 14.6189 26.9958 12.3312H29.2729C29.1482 14.6192 29.0845 17.0223 29.0845 19.4862C29.0845 22.2148 29.1615 24.8591 29.3136 27.3563H26.9551ZM20.1749 13.1121C20.1749 13.9662 19.5403 14.6866 18.6822 14.8953L18.69 15.2195C18.6965 15.497 18.4772 15.7271 18.1997 15.7341H18.1873C17.9151 15.7341 17.6915 15.517 17.685 15.2438L17.677 14.9049C17.1929 14.7965 16.8731 14.5309 16.5678 14.2427C16.3657 14.0523 16.3566 13.7343 16.5474 13.5321C16.7378 13.33 17.0558 13.3209 17.2579 13.5117C17.6021 13.8364 17.7915 13.9512 18.1701 13.9512C18.7216 13.9512 19.1702 13.5746 19.1702 13.1118C19.1702 12.649 18.7216 12.2725 18.1701 12.2725C17.0646 12.2725 16.1651 11.445 16.1651 10.4281C16.1651 9.57367 16.8003 8.853 17.6588 8.64435L17.65 8.27092C17.6436 7.99337 17.8628 7.76325 18.1403 7.75651C18.4187 7.74952 18.648 7.96927 18.6548 8.24682L18.6643 8.65654C19.1342 8.77963 19.6747 9.05252 19.9228 9.43008C20.0752 9.66202 20.0106 9.97377 19.7787 10.1259C19.5468 10.2783 19.235 10.2137 19.0829 9.98179C18.9831 9.83018 18.4669 9.58814 18.1699 9.58814C17.6184 9.58814 17.1699 9.96469 17.1699 10.4275C17.1699 10.8903 17.6184 11.2669 18.1699 11.2669C19.2752 11.2676 20.175 12.0948 20.175 13.112L20.1749 13.1121Z" fill="#181717"/>
</svg>
