<svg width="45" height="45" viewBox="0 0 45 45" fill="none" xmlns="http://www.w3.org/2000/svg">
<path d="M37.4612 15.3779H40.7862C42.925 15.3779 44.6654 13.6379 44.6654 11.4987V4.47929C44.6654 2.34015 42.9251 0.600098 40.7862 0.600098H37.4612C35.322 0.600098 33.582 2.34007 33.582 4.47929V7.06539H27.0237C26.5949 4.95986 24.7289 3.37096 22.4987 3.37096C20.2685 3.37096 18.4028 4.95986 17.9737 7.06539H11.4154V4.47929C11.4154 2.34015 9.67544 0.600098 7.53621 0.600098H4.21123C2.07209 0.600098 0.332031 2.34007 0.332031 4.47929V11.4987C0.332031 13.6378 2.072 15.3779 4.21123 15.3779H7.53621C9.67535 15.3779 11.4154 13.6379 11.4154 11.4987V8.91261H17.9737C18.3418 10.7195 19.7685 12.1459 21.575 12.514V33.0187C19.7681 33.3868 18.3418 34.8135 17.9737 36.6201L11.4154 36.6204V34.0343C11.4154 31.8952 9.67544 30.1551 7.53621 30.1551H4.21123C2.07209 30.1551 0.332031 31.8951 0.332031 34.0343V41.0537C0.332031 43.1929 2.072 44.9329 4.21123 44.9329H7.53621C9.67535 44.9329 11.4154 43.1929 11.4154 41.0537V38.4676H17.9737C18.4028 40.5731 20.2685 42.162 22.4987 42.162C24.7289 42.162 26.5949 40.5731 27.0237 38.4676H33.582V41.0537C33.582 43.1929 35.322 44.9329 37.4612 44.9329H40.7862C42.925 44.9329 44.6654 43.1929 44.6654 41.0537V34.0343C44.6654 31.8952 42.9251 30.1551 40.7862 30.1551H37.4612C35.322 30.1551 33.582 31.8951 33.582 34.0343V36.6204H27.0237C26.6556 34.8135 25.2289 33.3871 23.4223 33.019V12.5135C25.2293 12.1453 26.6556 10.7187 27.0237 8.91209H33.582V11.4982C33.582 13.6373 35.322 15.3774 37.4612 15.3774V15.3779ZM9.56845 11.4987C9.56845 12.6193 8.65704 13.5306 7.53655 13.5306H4.21156C3.09099 13.5306 2.17967 12.6192 2.17967 11.4987V4.47929C2.17967 3.35872 3.09107 2.4474 4.21156 2.4474H7.53655C8.65712 2.4474 9.56845 3.3588 9.56845 4.47929V11.4987ZM9.56845 41.0541C9.56845 42.1747 8.65704 43.086 7.53655 43.086H4.21156C3.09099 43.086 2.17967 42.1746 2.17967 41.0541V34.0347C2.17967 32.9142 3.09107 32.0028 4.21156 32.0028H7.53655C8.65712 32.0028 9.56845 32.9142 9.56845 34.0347V41.0541ZM35.4295 34.0347C35.4295 32.9142 36.3409 32.0028 37.4614 32.0028H40.7863C41.9069 32.0028 42.8182 32.9142 42.8182 34.0347V41.0541C42.8182 42.1747 41.9068 43.086 40.7863 43.086H37.4614C36.3408 43.086 35.4295 42.1746 35.4295 41.0541V34.0347ZM25.27 37.5444C25.27 39.0723 24.0271 40.3152 22.4992 40.3152C20.9714 40.3152 19.7284 39.0722 19.7284 37.5444C19.7284 36.0165 20.9714 34.7736 22.4992 34.7736C24.0271 34.7736 25.27 36.0165 25.27 37.5444ZM22.4992 10.7596C20.9713 10.7596 19.7284 9.51664 19.7284 7.98879C19.7284 6.46094 20.9714 5.21801 22.4992 5.21801C24.0271 5.21801 25.27 6.46094 25.27 7.98879C25.27 9.51664 24.0271 10.7596 22.4992 10.7596ZM35.4293 4.47904C35.4293 3.35846 36.3407 2.44714 37.4612 2.44714H40.7862C41.9067 2.44714 42.8181 3.35855 42.8181 4.47904V11.4985C42.8181 12.619 41.9067 13.5303 40.7862 13.5303H37.4612C36.3406 13.5303 35.4293 12.6189 35.4293 11.4985V4.47904Z" fill="#181717"/>
</svg>
