<svg width="13" height="8" viewBox="0 0 13 8" fill="none" xmlns="http://www.w3.org/2000/svg">
<path d="M1.46334 -3.6816e-09L0.137493 -3.45917e-10C0.022575 0 -0.0408872 0.129412 0.0294357 0.216806L6.06863 7.79325C6.11972 7.85763 6.18514 7.90971 6.2599 7.94554C6.33465 7.98137 6.41678 8 6.5 8C6.58322 8 6.66535 7.98137 6.7401 7.94554C6.81486 7.90971 6.88028 7.85763 6.93137 7.79325L12.9706 0.216806C13.0409 0.127731 12.9774 -3.26499e-08 12.8625 -3.23607e-08L11.5367 -2.90251e-08C11.4526 -2.88136e-08 11.372 0.0386548 11.3205 0.10252L6.50086 6.15292L1.67945 0.10252C1.628 0.0386548 1.54738 -3.89305e-09 1.46334 -3.6816e-09Z" fill="#181717"/>
</svg>
