<svg width="39" height="39" viewBox="0 0 39 39" fill="currentColor" xmlns="http://www.w3.org/2000/svg">
<path d="M26.0496 38.3435H29.6337C29.9902 38.3435 30.3321 38.2019 30.584 37.9501C30.8362 37.6979 30.9777 37.356 30.9777 36.9994V25.405L27.4205 18.3491L26.9724 18.2819H26.9727C25.3231 18.031 23.6618 17.865 21.9952 17.7844L21.9146 19.5762C23.3571 19.6434 24.813 19.7822 26.2467 19.9841L29.1543 25.7453L26.668 25.6153C22.9362 25.4228 19.1505 25.3869 15.4184 25.5122L15.4766 27.3041C19.159 27.1831 22.891 27.2191 26.5734 27.4116L29.1943 27.5459V32.5191H10.3695V27.5419L12.9905 27.4075L12.8964 25.6156L10.4102 25.7456L13.3174 19.9753C15.4577 19.6738 17.6164 19.5241 19.7777 19.5272V17.7354C17.378 17.7366 14.9818 17.9194 12.6095 18.2819L12.1614 18.3491L8.57764 25.405V36.9994C8.57764 37.356 8.7192 37.6979 8.97139 37.9501C9.22326 38.2019 9.56514 38.3435 9.92171 38.3435H13.5058C13.862 38.3435 14.2039 38.2019 14.4561 37.9501C14.708 37.6979 14.8496 37.356 14.8496 36.9994V34.3116H24.7056V36.9997V36.9994C24.7056 37.356 24.8471 37.6979 25.099 37.9501C25.3512 38.2019 25.6931 38.3435 26.0493 38.3435L26.0496 38.3435ZM26.4977 34.3117H29.1859V36.5517H26.4977V34.3117ZM13.0577 36.5517H10.3696V34.3117H13.0577V36.5517Z" fill="currentColor"/>
<path d="M12.1839 29.921C12.1804 30.36 12.4423 30.7582 12.847 30.9288C13.252 31.0994 13.7195 31.0088 14.0317 30.6997C14.3436 30.3904 14.438 29.9232 14.2708 29.517C14.1033 29.1107 13.7077 28.8457 13.2683 28.8457C12.673 28.8457 12.1889 29.3257 12.1839 29.921L12.1839 29.921Z" fill="currentColor"/>
<path d="M27.3936 29.9209C27.3973 29.4815 27.1355 29.0834 26.7308 28.9128C26.3258 28.7421 25.858 28.8328 25.5461 29.1421C25.2342 29.4512 25.1398 29.9184 25.307 30.3246C25.4742 30.7309 25.8701 30.9959 26.3095 30.9959C26.5957 30.9971 26.871 30.8846 27.0742 30.6827C27.2776 30.4812 27.3923 30.2071 27.3935 29.9209L27.3936 29.9209Z" fill="currentColor"/>
<path d="M34.9736 13.2556L38.4276 9.22373L34.9736 5.19189L16.964 5.19158C15.758 2.94942 13.6115 1.3647 11.1136 0.872218C8.61581 0.379738 6.02869 1.03159 4.06181 2.64846C2.09525 4.26534 0.955566 6.6775 0.955566 9.2235C0.955566 11.7695 2.09525 14.1819 4.06181 15.7988C6.02869 17.4157 8.61589 18.0672 11.1136 17.5747C13.6115 17.0825 15.758 15.4978 16.964 13.2557H21.0452L22.0174 12.2835L22.9896 13.2557H25.5252L26.4973 12.2835L27.756 13.5422L29.9336 11.9116H30.6054L31.9495 13.2557L34.9736 13.2556ZM29.3332 10.1193L27.9264 11.1765L26.4973 9.74781L24.7814 11.4634H23.7332L22.0173 9.74781L20.3014 11.4634H15.8214L15.5839 11.9875L15.5842 11.9878C14.7349 13.8694 13.0677 15.2565 11.0626 15.7494C9.05766 16.2422 6.93766 15.7859 5.31262 14.5119C3.6879 13.2381 2.73886 11.2881 2.73886 9.22347C2.73886 7.15875 3.6879 5.20875 5.31262 3.93507C6.93758 2.66131 9.05758 2.20507 11.0626 2.69787C13.0676 3.19036 14.7348 4.57755 15.5842 6.45947L15.8305 6.98353H34.1489L36.0707 9.22353L34.1489 11.4635H32.6929L31.3489 10.1194L29.3332 10.1193Z" fill="currentColor"/>
<path d="M9.47357 5.19092C8.40421 5.19092 7.37853 5.61561 6.62261 6.37188C5.86636 7.12781 5.44165 8.15348 5.44165 9.22284C5.44165 10.2922 5.86634 11.3179 6.62261 12.0741C7.37855 12.8301 8.40421 13.2551 9.47357 13.2551C10.5429 13.2551 11.5686 12.8301 12.3249 12.0741C13.0808 11.3179 13.5058 10.2923 13.5058 9.22284C13.5058 8.15348 13.0808 7.1278 12.3249 6.37188C11.5686 5.61563 10.543 5.19092 9.47357 5.19092V5.19092ZM9.47357 11.4628C8.87951 11.4628 8.30981 11.2268 7.88981 10.8068C7.4695 10.3865 7.23356 9.81682 7.23356 9.22274C7.23356 8.62866 7.4695 8.05898 7.88981 7.63898C8.30981 7.21867 8.87949 6.98273 9.47357 6.98273C10.0677 6.98273 10.6373 7.21867 11.0577 7.63898C11.4777 8.05898 11.7136 8.62866 11.7136 9.22274C11.7136 9.81682 11.4777 10.3865 11.0577 10.8068C10.6373 11.2268 10.0677 11.4628 9.47357 11.4628Z" fill="currentColor"/>
</svg>
