<svg width="45" height="31" viewBox="0 0 45 31" fill="none" xmlns="http://www.w3.org/2000/svg">
<path d="M41.7299 12.4169H39.0468C38.7832 12.4044 38.0906 11.4747 37.7672 10.3963L35.4761 2.75974C35.297 2.15301 34.9259 1.62079 34.4182 1.24305C33.911 0.865723 33.2943 0.663106 32.6619 0.666047H3.27153C2.49264 0.666781 1.7461 0.976574 1.19509 1.52715C0.644511 2.0781 0.334727 2.82472 0.333984 3.60359V22.8326C0.334719 23.6115 0.644511 24.3584 1.19509 24.909C1.74604 25.46 2.49265 25.7698 3.27153 25.7705H3.61986C3.87019 27.3712 4.8726 28.7547 6.31553 29.4913C7.75874 30.2277 9.4674 30.2277 10.9102 29.4913C12.3534 28.7547 13.3559 27.3713 13.6062 25.7705H29.9787C30.0965 25.7691 30.2128 25.7408 30.3186 25.6887C30.5432 27.3026 31.5328 28.7092 32.976 29.4656C34.4192 30.2225 36.1388 30.2364 37.5942 29.5034C39.0495 28.7704 40.0619 27.3804 40.3133 25.7704H41.7298C42.5087 25.7697 43.2552 25.4599 43.8062 24.909C44.3568 24.3584 44.6666 23.6114 44.6673 22.8325V15.3546C44.6666 14.5757 44.3568 13.8288 43.8062 13.2782C43.2553 12.7272 42.5086 12.4174 41.7298 12.4167L41.7299 12.4169ZM34.9377 6.54155L36.2326 10.8574C36.4062 11.4006 36.6375 11.9233 36.9227 12.417H30.7801V6.54165L34.9377 6.54155ZM8.61335 28.4411C7.69279 28.4411 6.80969 28.0751 6.15851 27.424C5.50736 26.7728 5.14144 25.8901 5.14144 24.9691C5.14144 24.0482 5.50738 23.1651 6.15851 22.5139C6.80966 21.8628 7.69278 21.4972 8.61335 21.4972C9.53428 21.4972 10.4174 21.8628 11.0686 22.5139C11.7197 23.1651 12.0853 24.0482 12.0853 24.9691C12.0842 25.8897 11.7182 26.7721 11.0674 27.4229C10.4163 28.0736 9.53393 28.4399 8.61335 28.4411ZM35.3201 28.4411C34.3992 28.4411 33.5164 28.0751 32.8653 27.424C32.2141 26.7728 31.8482 25.8901 31.8482 24.9691C31.8482 24.0482 32.2141 23.1651 32.8653 22.5139C33.5161 21.8628 34.3992 21.4972 35.3201 21.4972C36.2411 21.4972 37.1241 21.8628 37.7753 22.5139C38.4261 23.1651 38.792 24.0482 38.792 24.9691C38.7909 25.8897 38.425 26.7721 37.7738 27.4229C37.123 28.0736 36.2407 28.4399 35.3201 28.4411V28.4411ZM43.0653 22.8325C43.0645 23.5695 42.467 24.1671 41.7299 24.1678H40.3135C40.0621 22.5575 39.0498 21.1675 37.5943 20.4346C36.139 19.7016 34.4194 19.7159 32.9762 20.4724C31.5329 21.2292 30.5433 22.6357 30.3187 24.2497C30.213 24.1972 30.0967 24.1693 29.9788 24.1678H13.6064C13.356 22.5671 12.3536 21.1837 10.9104 20.447C9.46757 19.7107 7.75891 19.7107 6.3157 20.447C4.87287 21.1837 3.87045 22.567 3.62003 24.1678H3.2717C2.53466 24.1671 1.93711 23.5695 1.93636 22.8325V3.60348C1.9371 2.86643 2.53466 2.26889 3.2717 2.26814H32.6621C33.2531 2.26557 33.7746 2.65391 33.9416 3.22066L34.457 4.93881H29.979C29.5367 4.93918 29.1777 5.29779 29.1777 5.74008V13.218C29.1777 13.6607 29.5367 14.0193 29.979 14.0193H41.7302C42.4673 14.02 43.0648 14.6176 43.0656 15.3546L43.0653 22.8325ZM28.6435 21.7644C28.6435 22.2067 28.2849 22.5653 27.8422 22.5653H16.091C15.8784 22.566 15.674 22.4816 15.5235 22.3315C15.3726 22.181 15.2882 21.9769 15.2882 21.7644C15.2882 21.5515 15.3726 21.3474 15.5235 21.1969C15.674 21.0468 15.8784 20.9623 16.091 20.9631H27.8422C28.2849 20.9631 28.6435 21.3217 28.6435 21.7643V21.7644ZM21.4328 11.883H26.7742C27.2165 11.883 27.5751 11.5244 27.5754 11.0817V5.74038C27.5751 5.29808 27.2165 4.93948 26.7742 4.93911H21.4328C20.9902 4.93948 20.6316 5.29808 20.6316 5.74038V11.0817C20.6316 11.5244 20.9902 11.883 21.4328 11.883ZM22.2341 6.54165H25.9729V10.2808L22.2337 10.2804L22.2341 6.54165ZM19.0294 11.0817V5.74031H19.029C19.029 5.29802 18.6704 4.93941 18.2278 4.93904H12.8864C12.4441 4.93941 12.0855 5.29802 12.0852 5.74031V11.0817C12.0855 11.5243 12.4441 11.8829 12.8864 11.8829H18.2278C18.6704 11.8829 19.029 11.5243 19.029 11.0817H19.0294ZM17.4268 10.2804H13.6877V6.54124H17.4268V10.2804ZM9.68167 4.93904H4.34032C3.89766 4.93941 3.53905 5.29802 3.53905 5.74031V11.0817C3.53905 11.5243 3.89766 11.8829 4.34032 11.8829H9.68167C10.124 11.8829 10.4826 11.5243 10.4829 11.0817V5.74031C10.4826 5.29802 10.124 4.93941 9.68167 4.93904ZM8.8804 10.2804L5.14162 10.2808V6.54161H8.88078L8.8804 10.2804Z" fill="#181717"/>
</svg>
