<svg width="44" height="38" viewBox="0 0 44 38" fill="currentColor" xmlns="http://www.w3.org/2000/svg">
<path d="M38.251 7.40504C38.3698 7.1854 38.3592 6.91867 38.2231 6.70937L36.6449 4.28419C36.4645 3.90172 36.1798 3.57789 35.8232 3.35002C35.4668 3.12248 35.0531 3.00036 34.6302 2.99763H27.2822C26.729 2.99307 26.1958 3.2042 25.7961 3.58637L25.1609 4.15233L22.2491 6.55588C22.0276 6.73876 21.9447 7.04073 22.0419 7.31079C22.1391 7.58086 22.3952 7.76101 22.6823 7.76101H37.653C37.9027 7.76101 38.1321 7.6243 38.2511 7.40497L38.251 7.40504ZM26.0458 5.18526L26.7118 4.59287C26.8615 4.43945 27.0678 4.3547 27.282 4.35865H29.9747V6.40011H24.5749L26.0458 5.18526ZM31.3357 6.4001V4.35864H34.6303H34.63C34.9821 4.36806 35.2962 4.58223 35.4335 4.90668C35.4469 4.93523 35.4627 4.96318 35.48 4.98961L36.3978 6.40012L31.3357 6.4001Z" fill="currentColor"/>
<path d="M16.5178 9.80225H17.9101C17.9013 9.42404 17.5923 9.12207 17.2141 9.12207C16.8356 9.12207 16.5266 9.42404 16.5178 9.80225H16.5178Z" fill="currentColor"/>
<path d="M24.6416 17.612C24.7604 17.3924 24.7497 17.1257 24.6136 16.9164L23.0351 14.4909H23.0348C22.8519 14.1105 22.5664 13.7885 22.2106 13.5616C21.8549 13.3344 21.4426 13.2107 21.0207 13.2047H13.6724C13.1192 13.2004 12.5863 13.4115 12.1859 13.7934L11.551 14.3593L8.63948 16.7629C8.41801 16.9458 8.33508 17.2477 8.43229 17.5178C8.5295 17.7879 8.7856 17.968 9.07268 17.968H24.0434C24.2931 17.968 24.5224 17.8313 24.6415 17.612L24.6416 17.612ZM12.4372 15.3922L13.1025 14.7999H13.1022C13.2522 14.6467 13.4585 14.562 13.6727 14.5656H16.3654V16.6071H10.9659L12.4372 15.3922ZM17.7268 16.6071V14.5656H21.021C21.3728 14.575 21.6869 14.7889 21.8245 15.1134C21.8382 15.1419 21.8534 15.1699 21.8707 15.1966L22.7888 16.6071L17.7268 16.6071Z" fill="currentColor"/>
<path d="M4.30542 20.0635C4.30542 20.469 3.9916 20.798 3.60428 20.798C3.21664 20.798 2.90283 20.469 2.90283 20.0635C2.90283 19.6576 3.21665 19.3286 3.60428 19.3286C3.99161 19.3286 4.30542 19.6576 4.30542 20.0635" fill="currentColor"/>
<path d="M36.6449 24.0186C36.4645 23.6361 36.1798 23.3123 35.8232 23.0844C35.4669 22.8569 35.0531 22.7347 34.6302 22.732H27.2822C26.729 22.7274 26.1958 22.9386 25.7961 23.3207L25.1609 23.8867L22.2491 26.2903C22.0276 26.4731 21.9447 26.7751 22.0419 27.0452C22.1391 27.3152 22.3952 27.4954 22.6823 27.4954H37.653C37.9027 27.4954 38.1321 27.3587 38.2511 27.1393C38.3699 26.9197 38.3593 26.653 38.2232 26.4437L36.6449 24.0186ZM26.0457 24.9196L26.7116 24.3272C26.8613 24.1738 27.0676 24.0891 27.2818 24.093H29.9746V26.1345H24.5747L26.0457 24.9196ZM31.3356 26.1345V24.093H34.6301H34.6298C34.9819 24.1024 35.296 24.3166 35.4333 24.641C35.4467 24.6696 35.4625 24.6975 35.4798 24.724L36.3976 26.1345L31.3356 26.1345Z" fill="currentColor"/>
<path d="M17.9148 29.5903C17.9148 29.9959 17.601 30.3249 17.2137 30.3249C16.826 30.3249 16.5122 29.9959 16.5122 29.5903C16.5122 29.1845 16.826 28.8555 17.2137 28.8555C17.601 28.8555 17.9148 29.1845 17.9148 29.5903Z" fill="currentColor"/>
<path d="M43.7776 30.4896V29.1177C43.7764 28.6936 43.6069 28.2877 43.3064 27.9884C43.006 27.6895 42.5992 27.5215 42.1754 27.5221H41.5113L38.9301 23.4857C38.4789 22.6387 37.8051 21.9312 36.9818 21.4385C36.1583 20.9461 35.2162 20.6872 34.2569 20.69H27.4645C26.0883 20.6863 24.765 21.2201 23.7765 22.1773L23.7133 22.2387C23.6127 22.3365 23.5122 22.4343 23.4055 22.5255L18.7427 26.5105C18.7187 26.5297 18.6956 26.55 18.6737 26.5719H15.9102C15.346 26.5786 14.8107 26.8231 14.4362 27.2451C13.9836 27.7631 13.7697 28.4478 13.8475 29.1313V31.4045C13.8447 31.9647 14.0574 32.5046 14.4414 32.9129C14.8251 33.3209 15.3509 33.566 15.9102 33.5979H19.3813C19.3807 33.6274 19.3771 33.6559 19.3771 33.6857C19.3446 34.5588 19.669 35.4079 20.2754 36.037C20.8817 36.6665 21.7181 37.0219 22.5918 37.0219C23.4657 37.0219 24.3021 36.6664 24.9084 36.037C25.5148 35.4079 25.839 34.5588 25.8064 33.6857C25.8064 33.6562 25.8028 33.6274 25.8022 33.5979H32.9747C32.9741 33.6274 32.9704 33.6559 32.9704 33.6857C32.9379 34.5588 33.2624 35.4076 33.8687 36.037C34.4751 36.6661 35.3114 37.0216 36.1851 37.0216C37.0591 37.0216 37.8951 36.6661 38.5018 36.037C39.1082 35.4076 39.4323 34.5588 39.4001 33.6857C39.4001 33.6562 39.3965 33.6274 39.3959 33.5979H40.7933C41.5977 33.5706 42.3597 33.2306 42.9171 32.6501C43.4743 32.0695 43.7832 31.2942 43.7777 30.4895L43.7776 30.4896ZM22.5915 35.6607C22.0605 35.6944 21.5383 35.5127 21.1428 35.157C20.7472 34.8009 20.5118 34.3009 20.4893 33.7693C20.4668 33.2376 20.6594 32.7194 21.0234 32.3314C21.3876 31.9432 21.8925 31.7184 22.4248 31.7072C22.9567 31.6959 23.4707 31.8995 23.8511 32.2716C24.2311 32.6437 24.4453 33.1535 24.4453 33.6858C24.4605 34.1931 24.2737 34.6858 23.9264 35.0558C23.5789 35.4262 23.0992 35.6437 22.5916 35.6607L22.5915 35.6607ZM36.1849 35.6607H36.1852C35.6542 35.6944 35.132 35.5127 34.7364 35.157C34.3406 34.8009 34.1052 34.3009 34.0827 33.7693C34.0602 33.2376 34.2528 32.7194 34.6171 32.3314C34.981 31.9432 35.4862 31.7184 36.0182 31.7072C36.5501 31.6959 37.0641 31.8995 37.4445 32.2716C37.8248 32.6437 38.039 33.1535 38.039 33.6858C38.0539 34.1931 37.8673 34.6858 37.5198 35.0558C37.1726 35.4262 36.6926 35.6437 36.1853 35.6607L36.1849 35.6607ZM36.1849 30.3498H36.1852C35.5734 30.3559 34.9761 30.537 34.4639 30.8711C33.9515 31.2056 33.5456 31.6796 33.2937 32.2369H31.1885V29.5687C31.1885 29.1929 30.8838 28.8882 30.508 28.8882C30.1322 28.8882 29.8275 29.1929 29.8275 29.5687V32.2369H25.4831C25.1523 31.4844 24.5411 30.8906 23.7795 30.5816C23.0179 30.2723 22.1657 30.2723 21.4038 30.5816C20.6422 30.8906 20.0313 31.4844 19.7005 32.2369H15.9102C15.5013 32.1734 15.2017 31.8183 15.2084 31.4046V29.0997C15.2084 29.0772 15.2072 29.0547 15.2051 29.0323C15.1577 28.72 15.2452 28.4025 15.4451 28.1583C15.5617 28.0213 15.7303 27.9395 15.9102 27.9329H18.6737C19.0416 27.9326 19.3943 27.7849 19.6528 27.5231L24.2902 23.5601C24.4187 23.4502 24.5405 23.3326 24.6617 23.2147L24.7225 23.1558C25.4576 22.4443 26.4416 22.0479 27.4645 22.0509H34.2569C34.9732 22.0485 35.6768 22.2423 36.2907 22.6117C36.9046 22.9811 37.4056 23.5115 37.7392 24.1456C37.7483 24.1626 37.758 24.1793 37.7686 24.1954L40.5656 28.569C40.6905 28.7646 40.9065 28.8831 41.1386 28.8831H42.1754C42.3067 28.8813 42.4145 28.9864 42.4166 29.1177V29.3841H41.9451C41.5694 29.3841 41.2647 29.6888 41.2647 30.0646C41.2647 30.4403 41.5694 30.745 41.9451 30.745H42.3911C42.3401 31.1409 42.1526 31.5066 41.861 31.7788C41.5694 32.0513 41.1914 32.2133 40.7932 32.237H39.0765C38.8247 31.6795 38.4188 31.2056 37.9063 30.8712C37.3941 30.537 36.7969 30.3559 36.1854 30.3499L36.1849 30.3498Z" fill="currentColor"/>
<path d="M2.30034 24.0711H5.77144C5.77083 24.1005 5.76718 24.1291 5.76718 24.1589C5.7523 25.0271 6.08252 25.8658 6.68526 26.4913C7.28767 27.1165 8.11365 27.4775 8.98187 27.4947C9.85041 27.4774 10.6764 27.1165 11.2788 26.4913C11.8815 25.8658 12.2117 25.0271 12.1969 24.1589C12.1969 24.1294 12.1932 24.1005 12.1926 24.0711H19.3648C19.3642 24.1005 19.3605 24.1291 19.3605 24.1589C19.3605 24.1698 19.3621 24.1801 19.3621 24.1908L19.5021 24.0711L21.0946 22.7101L22.5215 21.4907C22.606 21.4187 22.685 21.3397 22.7648 21.2625L22.8299 21.199C22.9447 21.0881 23.0662 20.987 23.1877 20.8852C22.9863 20.8442 22.7813 20.8232 22.5756 20.8226C21.9638 20.829 21.3665 21.0101 20.8543 21.3442C20.3421 21.6787 19.9359 22.1526 19.6841 22.71H17.5789V20.0418C17.5789 19.666 17.2742 19.3613 16.8984 19.3613C16.5226 19.3613 16.2179 19.666 16.2179 20.0418V22.71H11.8735C11.5426 21.9575 10.9314 21.3637 10.1698 21.0547C9.40823 20.7454 8.55611 20.7454 7.79451 21.0547C7.03261 21.3636 6.42172 21.9575 6.09088 22.71H2.30054C1.89164 22.6465 1.5921 22.2914 1.59879 21.8776V19.5728C1.59879 19.5503 1.59758 19.5278 1.59545 19.5053C1.54806 19.1931 1.63555 18.8756 1.83544 18.6314C1.95209 18.4944 2.1207 18.4126 2.30054 18.406H5.06409C5.43198 18.4057 5.78468 18.258 6.04321 17.9962L10.6809 14.0329C10.8081 13.9239 10.9288 13.8075 11.0491 13.6906L11.1128 13.6289C11.848 12.9174 12.8319 12.521 13.8552 12.524H20.6473C21.3636 12.5216 22.0672 12.7154 22.6811 13.0848C23.295 13.4542 23.796 13.9846 24.1296 14.6187C24.1387 14.6357 24.1484 14.6524 24.159 14.6685L26.956 19.0421C27.0481 19.1867 27.1918 19.2909 27.3576 19.334C27.3935 19.3334 27.4287 19.3289 27.4646 19.3289H30.1416C30.0787 18.9561 29.8861 18.6177 29.5978 18.3738C29.3092 18.1295 28.9437 17.9956 28.5658 17.9953H27.9017L25.3204 13.9589C24.8693 13.1119 24.1958 12.4044 23.3722 11.9116C22.5486 11.4192 21.6066 11.1604 20.6472 11.1631H13.8551C12.479 11.1595 11.156 11.6929 10.1671 12.6501L10.1009 12.7142C10.001 12.8112 9.90133 12.9087 9.79591 12.9986L5.13307 16.9837C5.10907 17.0028 5.08598 17.0232 5.06411 17.045H2.30056C1.73643 17.0517 1.20113 17.2963 0.82659 17.7182C0.373946 18.2362 0.16008 18.9209 0.23785 19.6044V21.8777C0.235115 22.4378 0.447765 22.9777 0.831754 23.386C1.21544 23.794 1.74127 24.0391 2.30059 24.071L2.30034 24.0711ZM8.98185 22.1839C9.65778 22.2264 10.2651 22.6119 10.5913 23.2056C10.9173 23.7992 10.9173 24.5182 10.5913 25.1119C10.265 25.7055 9.65775 26.091 8.98185 26.1338C8.30592 26.091 7.69896 25.7055 7.37272 25.1119C7.04647 24.5182 7.04645 23.7992 7.37272 23.2056C7.69898 22.612 8.30595 22.2264 8.98185 22.1839Z" fill="currentColor"/>
<path d="M43.7776 9.38327C43.7764 8.95919 43.6069 8.55332 43.3064 8.25406C43.006 7.95513 42.5992 7.78714 42.1754 7.78774H41.5113L38.9301 3.75133C38.4789 2.90434 37.8051 2.19687 36.9818 1.70412C36.1583 1.21168 35.2162 0.95285 34.2569 0.955588H27.4645C26.0883 0.951942 24.765 1.4857 23.7765 2.44294L23.7133 2.5043C23.6127 2.60212 23.5122 2.69994 23.4055 2.79108L18.7427 6.77616C18.7187 6.79529 18.6956 6.81565 18.6737 6.83752H15.9102C15.346 6.8442 14.8107 7.08876 14.4362 7.51071C13.9836 8.02867 13.7697 8.71342 13.8475 9.39694V9.80219L13.8551 9.80189H15.2084V9.36534C15.2084 9.34286 15.2072 9.32038 15.2051 9.2979C15.158 8.98561 15.2452 8.66814 15.4451 8.42392C15.5617 8.28692 15.7303 8.2052 15.9102 8.19852H18.6737C19.0416 8.19821 19.3943 8.05057 19.6528 7.78871L24.2902 3.82579C24.4187 3.71582 24.5405 3.59825 24.6617 3.48039L24.7225 3.42145C25.4576 2.70998 26.4416 2.31354 27.4645 2.31658H34.2569C34.9732 2.31415 35.6768 2.50796 36.2907 2.87737C36.9046 3.24677 37.4056 3.77716 37.7392 4.41122C37.7483 4.42823 37.758 4.44494 37.7686 4.46104L40.5656 8.83466C40.6905 9.0303 40.9065 9.14878 41.1386 9.14878H42.1754C42.3066 9.14695 42.4145 9.25206 42.4166 9.3833V9.64972H41.9451C41.5694 9.64972 41.2647 9.95443 41.2647 10.3302C41.2647 10.706 41.5694 11.0107 41.9451 11.0107H42.3911C42.3401 11.4065 42.1526 11.7723 41.861 12.0445C41.5694 12.317 41.1914 12.4789 40.7932 12.5026H39.0765C38.7457 11.7501 38.1345 11.1562 37.3729 10.8473C36.6113 10.538 35.7592 10.538 34.9976 10.8473C34.2357 11.1562 33.6248 11.7501 33.294 12.5026H31.1887V9.8344C31.1887 9.45861 30.884 9.15391 30.5082 9.15391C30.1325 9.15391 29.8278 9.45861 29.8278 9.8344V12.5026H26.0076C26.1872 12.7465 26.3497 13.0023 26.4946 13.2685L26.8752 13.8636H32.9747C32.9741 13.893 32.9705 13.9216 32.9705 13.9514C32.938 14.8245 33.2624 15.6733 33.8688 16.3027C34.4752 16.9318 35.3115 17.2872 36.1852 17.2872C37.0591 17.2872 37.8952 16.9318 38.5018 16.3027C39.1082 15.6732 39.4324 14.8244 39.4002 13.9514C39.4002 13.9219 39.3965 13.893 39.3959 13.8636H40.7934C41.5978 13.8362 42.3597 13.4963 42.9172 12.9157C43.4743 12.3352 43.7833 11.5599 43.7778 10.7552L43.7776 9.38327ZM36.1853 15.9263C35.6543 15.96 35.1321 15.7783 34.7365 15.4226C34.3407 15.0666 34.1053 14.5665 34.0828 14.0349C34.0603 13.5032 34.2529 12.985 34.6171 12.5971C34.9811 12.2088 35.4863 11.984 36.0183 11.9728C36.5502 11.9615 37.0642 12.1651 37.4445 12.5372C37.8249 12.9094 38.0391 13.4191 38.0391 13.9514C38.0539 14.4587 37.8674 14.9514 37.5199 15.3215C37.1727 15.6918 36.6926 15.9093 36.1854 15.9263L36.1853 15.9263Z" fill="currentColor"/>
</svg>
