<svg width="41" height="33" viewBox="0 0 41 33" fill="currentColor" xmlns="http://www.w3.org/2000/svg">
<path d="M38.1442 6.57126H3.10064C2.66082 6.57126 2.3042 6.21499 2.3042 5.77482V0.996151C2.3042 0.555977 2.66082 0.199707 3.10064 0.199707H38.1442C38.584 0.199707 38.9406 0.555977 38.9406 0.996151V5.77482C38.9406 6.21499 38.584 6.57126 38.1442 6.57126ZM3.89709 4.97837H37.3478V1.7926H3.89709V4.97837Z" fill="currentColor"/>
<path d="M38.1442 32.8552H3.10064C2.66082 32.8552 2.3042 32.4989 2.3042 32.0587V10.5547C2.3042 10.1146 2.66082 9.7583 3.10064 9.7583C3.54046 9.7583 3.89709 10.1146 3.89709 10.5547V31.2623H37.3478V10.5547C37.3478 10.1146 37.7044 9.7583 38.1442 9.7583C38.584 9.7583 38.9406 10.1146 38.9406 10.5547V32.0587C38.9406 32.4989 38.584 32.8552 38.1442 32.8552Z" fill="currentColor"/>
<path d="M36.5512 6.5714H4.69342C4.2536 6.5714 3.89697 6.21513 3.89697 5.77496C3.89697 5.33479 4.2536 4.97852 4.69342 4.97852H36.5512C36.991 4.97852 37.3476 5.33479 37.3476 5.77496C37.3476 6.21513 36.991 6.5714 36.5512 6.5714Z" fill="currentColor"/>
<path d="M17.4363 11.3501C15.2408 11.3501 13.4541 9.5634 13.4541 7.36785V5.77496C13.4541 5.33479 13.8107 4.97852 14.2505 4.97852H20.6221C21.0619 4.97852 21.4185 5.33479 21.4185 5.77496V7.36785C21.4185 9.5634 19.6319 11.3501 17.4363 11.3501ZM15.047 6.5714V7.36785C15.047 8.68558 16.1186 9.75718 17.4363 9.75718C18.7541 9.75718 19.8257 8.68558 19.8257 7.36785V6.5714H15.047Z" fill="currentColor"/>
<path d="M11.065 11.3501C8.86944 11.3501 7.08276 9.5634 7.08276 7.36785V5.77496C7.08276 5.33479 7.43939 4.97852 7.87921 4.97852H14.2508C14.6906 4.97852 15.0472 5.33479 15.0472 5.77496V7.36785C15.0472 9.5634 13.2605 11.3501 11.065 11.3501ZM8.67565 6.5714V7.36785C8.67565 8.68558 9.74726 9.75718 11.065 9.75718C12.3827 9.75718 13.4543 8.68558 13.4543 7.36785V6.5714H8.67565Z" fill="currentColor"/>
<path d="M4.6934 11.3501C2.49786 11.3501 0.711182 9.5634 0.711182 7.36785V5.77496C0.711182 5.33479 1.06781 4.97852 1.50763 4.97852H7.87918C8.319 4.97852 8.67562 5.33479 8.67562 5.77496V7.36785C8.67562 9.5634 6.88895 11.3501 4.6934 11.3501ZM2.30407 6.5714V7.36785C2.30407 8.68558 3.37567 9.75718 4.6934 9.75718C6.01113 9.75718 7.08274 8.68558 7.08274 7.36785V6.5714H2.30407Z" fill="currentColor"/>
<path d="M36.5511 11.3501C34.3555 11.3501 32.5688 9.5634 32.5688 7.36785V5.77496C32.5688 5.33479 32.9255 4.97852 33.3653 4.97852H39.7368C40.1767 4.97852 40.5333 5.33479 40.5333 5.77496V7.36785C40.5333 9.5634 38.7466 11.3501 36.5511 11.3501ZM34.1617 6.5714V7.36785C34.1617 8.68558 35.2333 9.75718 36.5511 9.75718C37.8688 9.75718 38.9404 8.68558 38.9404 7.36785V6.5714H34.1617Z" fill="currentColor"/>
<path d="M30.1797 11.3501C27.9842 11.3501 26.1975 9.5634 26.1975 7.36785V5.77496C26.1975 5.33479 26.5541 4.97852 26.994 4.97852H33.3655C33.8053 4.97852 34.162 5.33479 34.162 5.77496V7.36785C34.162 9.5634 32.3753 11.3501 30.1797 11.3501ZM27.7904 6.5714V7.36785C27.7904 8.68558 28.862 9.75718 30.1797 9.75718C31.4975 9.75718 32.5691 8.68558 32.5691 7.36785V6.5714H27.7904Z" fill="currentColor"/>
<path d="M23.8081 11.3501C21.6126 11.3501 19.8259 9.5634 19.8259 7.36785V5.77496C19.8259 5.33479 20.1826 4.97852 20.6224 4.97852H26.9939C27.4337 4.97852 27.7904 5.33479 27.7904 5.77496V7.36785C27.7904 9.5634 26.0037 11.3501 23.8081 11.3501ZM21.4188 6.5714V7.36785C21.4188 8.68558 22.4904 9.75718 23.8081 9.75718C25.1259 9.75718 26.1975 8.68558 26.1975 7.36785V6.5714H21.4188Z" fill="currentColor"/>
<path d="M21.0212 32.8553C19.4845 32.8553 18.2336 31.6045 18.2336 30.0678V28.8731C18.2336 28.4329 18.5903 28.0767 19.0301 28.0767H23.0123C23.4521 28.0767 23.8088 28.4329 23.8088 28.8731V30.0678C23.8088 31.6045 22.5579 32.8553 21.0212 32.8553ZM19.8265 29.6695V30.0678C19.8265 30.7266 20.3624 31.2624 21.0212 31.2624C21.68 31.2624 22.2159 30.7266 22.2159 30.0678V29.6695H19.8265Z" fill="currentColor"/>
<path d="M10.6662 32.8553C9.12949 32.8553 7.87866 31.6045 7.87866 30.0678V28.8731C7.87866 28.4329 8.23529 28.0767 8.67511 28.0767H12.6573C13.0971 28.0767 13.4538 28.4329 13.4538 28.8731V30.0678C13.4538 31.6045 12.2029 32.8553 10.6662 32.8553ZM9.47155 29.6695V30.0678C9.47155 30.7266 10.0074 31.2624 10.6662 31.2624C11.3251 31.2624 11.8609 30.7266 11.8609 30.0678V29.6695H9.47155Z" fill="currentColor"/>
<path d="M23.0118 29.6694H8.67584C8.23602 29.6694 7.87939 29.3131 7.87939 28.873V24.0943C7.87939 23.6541 8.23602 23.2979 8.67584 23.2979H23.0118C23.4517 23.2979 23.8083 23.6541 23.8083 24.0943V28.873C23.8083 29.3131 23.4517 29.6694 23.0118 29.6694ZM9.47228 28.0765H22.2154V24.8907H9.47228V28.0765Z" fill="currentColor"/>
<path d="M23.0119 24.8906H8.67587C8.41987 24.8906 8.17951 24.7676 8.02982 24.5599C7.88013 24.3523 7.83924 24.0846 7.92031 23.8421L9.5132 19.0634C9.62164 18.7384 9.92564 18.519 10.2688 18.519H21.419C21.7621 18.519 22.0661 18.7384 22.1745 19.0634L23.7674 23.8421C23.8485 24.0846 23.8076 24.3523 23.6579 24.5599C23.5082 24.7676 23.2679 24.8906 23.0119 24.8906ZM9.78088 23.2977H21.9078L20.8457 20.1119H10.8433L9.78088 23.2977Z" fill="currentColor"/>
<path d="M8.80948 24.8909H7.4811C6.38319 24.8909 5.48999 23.9981 5.48999 22.8998C5.48999 21.8015 6.38315 20.9087 7.4811 20.9087H9.47221C9.91203 20.9087 10.2687 21.265 10.2687 21.7051C10.2687 22.1453 9.91203 22.5016 9.47221 22.5016H7.4811C7.26136 22.5016 7.08288 22.6804 7.08288 22.8998C7.08288 23.1192 7.26136 23.298 7.4811 23.298H8.80948C9.2493 23.298 9.60592 23.6543 9.60592 24.0945C9.60592 24.5346 9.2493 24.8909 8.80948 24.8909Z" fill="currentColor"/>
<path d="M24.207 24.8909H22.8786C22.4388 24.8909 22.0822 24.5346 22.0822 24.0945C22.0822 23.6543 22.4388 23.298 22.8786 23.298H24.207C24.4267 23.298 24.6052 23.1192 24.6052 22.8998C24.6052 22.6804 24.4267 22.5016 24.207 22.5016H22.2159C21.7761 22.5016 21.4194 22.1453 21.4194 21.7051C21.4194 21.265 21.7761 20.9087 22.2159 20.9087H24.207C25.3049 20.9087 26.1981 21.8015 26.1981 22.8998C26.1981 23.9981 25.3049 24.8909 24.207 24.8909Z" fill="currentColor"/>
<path d="M12.6579 27.2789H11.065C10.6252 27.2789 10.2686 26.9227 10.2686 26.4825C10.2686 26.0423 10.6252 25.686 11.065 25.686H12.6579C13.0977 25.686 13.4543 26.0423 13.4543 26.4825C13.4543 26.9227 13.0977 27.2789 12.6579 27.2789Z" fill="currentColor"/>
<path d="M20.6222 27.2789H19.0294C18.5895 27.2789 18.2329 26.9227 18.2329 26.4825C18.2329 26.0423 18.5895 25.686 19.0294 25.686H20.6222C21.0621 25.686 21.4187 26.0423 21.4187 26.4825C21.4187 26.9227 21.0621 27.2789 20.6222 27.2789Z" fill="currentColor"/>
<path d="M29.3833 32.8553C28.9435 32.8553 28.5869 32.499 28.5869 32.0588V15.6603H3.10064C2.66082 15.6603 2.3042 15.304 2.3042 14.8638C2.3042 14.4237 2.66082 14.0674 3.10064 14.0674H29.3833C29.8231 14.0674 30.1798 14.4237 30.1798 14.8638V32.0588C30.1798 32.499 29.8231 32.8553 29.3833 32.8553Z" fill="currentColor"/>
<path d="M38.1442 32.8548H29.3834C28.9435 32.8548 28.5869 32.4985 28.5869 32.0583V16.1295C28.5869 15.6893 28.9435 15.333 29.3834 15.333H38.1442C38.5841 15.333 38.9407 15.6893 38.9407 16.1295V32.0583C38.9407 32.4985 38.5841 32.8548 38.1442 32.8548ZM30.1798 31.2619H37.3478V16.9259H30.1798V31.2619Z" fill="currentColor"/>
<path d="M32.5689 26.4837C32.1291 26.4837 31.7725 26.1274 31.7725 25.6872V23.2979C31.7725 22.8577 32.1291 22.5015 32.5689 22.5015C33.0087 22.5015 33.3653 22.8577 33.3653 23.2979V25.6872C33.3653 26.1274 33.0087 26.4837 32.5689 26.4837Z" fill="currentColor"/>
</svg>
