<svg width="37" height="44" viewBox="0 0 37 44" fill="currentColor" xmlns="http://www.w3.org/2000/svg">
<path d="M28.842 5.61973H27.2767C26.3696 4.74469 21.8995 0.719727 16.3914 0.719727C10.8833 0.719727 6.41877 4.74469 5.50607 5.61973H2.75496C2.28357 5.62129 1.83203 5.84317 1.49879 6.2366C1.16556 6.63004 0.977641 7.16316 0.97632 7.71972V11.9197C0.976055 12.0572 1.01126 12.1916 1.07716 12.3047L3.44869 16.5047C3.55774 16.7003 3.74248 16.8185 3.94073 16.8197H6.36572C6.55285 18.1348 7.2585 19.2663 8.26667 19.8679C9.27457 20.4694 10.4646 20.4694 11.4724 19.8679C12.4806 19.2663 13.1862 18.1348 13.3734 16.8197H24.7452C24.9323 18.1348 25.638 19.2663 26.6461 19.8679C27.654 20.4694 28.8441 20.4694 29.8519 19.8679C30.8601 19.2663 31.5657 18.1348 31.7529 16.8197H35.9565C36.1137 16.8197 36.2646 16.746 36.3757 16.6147C36.4869 16.4835 36.5494 16.3053 36.5494 16.1197V14.7197C36.5475 12.3069 35.7349 9.99348 34.2898 8.28756C32.8449 6.58132 30.8855 5.62196 28.8419 5.61972L28.842 5.61973ZM28.842 7.01973C30.5026 7.02191 32.0994 7.77317 33.3064 9.11973H30.2708L28.4921 7.01973H28.842ZM2.16235 7.71973C2.16235 7.33317 2.42782 7.01973 2.75523 7.01973H4.24936L3.5379 9.11973H2.16235V7.71973ZM9.86981 18.9197C9.24094 18.9197 8.6377 18.6247 8.1928 18.0997C7.74814 17.5744 7.49829 16.8622 7.49829 16.1197C7.49829 15.3772 7.74814 14.665 8.1928 14.1397C8.63773 13.6147 9.24095 13.3197 9.86981 13.3197C10.4987 13.3197 11.1019 13.6147 11.5468 14.1397C11.9915 14.665 12.2413 15.3772 12.2413 16.1197C12.2413 16.8622 11.9915 17.5744 11.5468 18.0997C11.1019 18.6247 10.4987 18.9197 9.86981 18.9197ZM15.7986 15.4197H13.3736C13.1865 14.1047 12.4809 12.9732 11.4727 12.3716C10.4648 11.77 9.27476 11.77 8.26693 12.3716C7.25876 12.9731 6.55313 14.1047 6.36598 15.4197H4.26129L2.16235 11.7097V10.5197H3.94099C4.18397 10.52 4.4026 10.3454 4.49232 10.0788L5.52983 7.01975H15.7985L15.7986 15.4197ZM7.53352 5.61973C9.33019 4.21973 12.6442 2.11973 16.3915 2.11973C20.1388 2.11973 23.4526 4.21973 25.2495 5.61973H7.53352ZM19.3559 7.01973V7.71973C19.3559 7.90535 19.2935 8.08348 19.1823 8.21473C19.0711 8.34598 18.9203 8.41973 18.763 8.41973H16.9844V7.01973H19.3559ZM28.2492 18.9197C27.6203 18.9197 27.017 18.6247 26.5721 18.0997C26.1275 17.5744 25.8776 16.8622 25.8776 16.1197C25.8776 15.3772 26.1275 14.665 26.5721 14.1397C27.0171 13.6147 27.6203 13.3197 28.2492 13.3197C28.878 13.3197 29.4813 13.6147 29.9262 14.1397C30.3708 14.665 30.6207 15.3772 30.6207 16.1197C30.6207 16.8622 30.3708 17.5744 29.9262 18.0997C29.4812 18.6247 28.878 18.9197 28.2492 18.9197ZM35.3637 15.4197H31.753C31.5659 14.1047 30.8602 12.9732 29.852 12.3716C28.8441 11.77 27.6541 11.77 26.6463 12.3716C25.6381 12.9731 24.9325 14.1047 24.7453 15.4197H16.9843V9.81973H18.763C19.2344 9.81816 19.6859 9.59629 20.0191 9.20286C20.3524 8.80942 20.5403 8.2763 20.5416 7.71973V7.01973H26.8203L29.6069 10.3166C29.7199 10.4457 29.8705 10.5185 30.0277 10.5197H34.3023C34.9953 11.7679 35.3642 13.2276 35.3637 14.7197L35.3637 15.4197Z" fill="currentColor"/>
<path d="M34.1777 33.9485C34.178 33.1875 33.8747 32.4713 33.3588 32.0154C32.843 31.5591 32.1754 31.4169 31.5571 31.6313L30.6085 31.9604C30.6154 31.9235 30.6194 31.886 30.6204 31.8485C30.6207 31.0875 30.3174 30.3713 29.8015 29.9154C29.2857 29.4591 28.6181 29.3169 27.9998 29.5313L25.2845 30.4763V30.4481V30.4484C25.2848 29.6875 24.9814 28.9712 24.4656 28.5153C23.9497 28.0591 23.2822 27.9169 22.6639 28.1313L16.9842 30.1053L11.7668 28.8735C11.7276 28.8654 11.6879 28.8607 11.6482 28.8594H8.09093C8.01576 28.8582 7.94112 28.8748 7.87151 28.9085L5.71938 29.9235V28.8595C5.71753 28.5595 5.55607 28.2932 5.31627 28.1945L1.75898 26.7945C1.57794 26.7242 1.37943 26.7604 1.22539 26.8926C1.0687 27.0217 0.975531 27.2335 0.976323 27.4595V42.8595C0.975529 43.0854 1.0687 43.2973 1.22539 43.4263C1.32411 43.5148 1.44534 43.5616 1.56921 43.5595C1.63352 43.5582 1.69731 43.5463 1.75898 43.5245L5.31627 42.1245C5.55608 42.0257 5.71753 41.7595 5.71938 41.4595V40.7595H7.4033L14.423 43.5244H14.4228C14.4844 43.5463 14.5482 43.5582 14.6125 43.5594H23.5058C23.5727 43.5597 23.6389 43.5454 23.7014 43.5175L32.8141 39.7235C33.2127 39.5572 33.5579 39.2491 33.8022 38.8416C34.0462 38.4344 34.1775 37.9475 34.1778 37.4485C34.1748 36.7857 33.9388 36.1541 33.5256 35.7054C33.9388 35.251 34.1748 34.6151 34.1778 33.9485L34.1777 33.9485ZM4.53365 40.9554L2.16212 41.8863V28.4327L4.53365 29.3637V40.9554ZM28.3377 30.8754C28.4144 30.8469 28.4944 30.8325 28.5748 30.8335C28.894 30.825 29.19 31.0307 29.3385 31.3647C29.4867 31.6988 29.4621 32.1032 29.2744 32.4085L22.3197 34.2844V33.0594C22.3197 33.0313 22.3078 33.0035 22.3078 32.9685L28.3377 30.8754ZM23.0018 29.4754C23.0785 29.4469 23.1584 29.4325 23.2389 29.4335C23.7135 29.4338 24.0983 29.8879 24.0986 30.4485C24.0949 30.6188 24.0542 30.7851 23.98 30.9313L21.4958 31.7923L20.9622 31.1623V31.1626C20.8791 31.0664 20.774 31.0007 20.6599 30.9735L19.4861 30.6935L23.0018 29.4754ZM32.4228 38.4002L23.4049 42.1592H14.7075L7.68778 39.3942C7.62611 39.3724 7.56232 39.3605 7.49801 39.3592H5.71936V31.4352L8.20364 30.2592H11.5889L20.2511 32.3033L21.1346 33.3461V34.4592H13.4271C13.1582 34.4602 12.9234 34.6745 12.8554 34.9817C12.7871 35.2889 12.9028 35.6117 13.1365 35.7683L18.4724 39.2683C18.5606 39.3292 18.6609 39.3605 18.763 39.3592H23.5061C23.5625 39.3608 23.6183 39.3514 23.672 39.3311L31.8951 36.4752C32.3395 36.3242 32.8054 36.6167 32.9478 37.1364C33.0902 37.6558 32.8578 38.2152 32.4229 38.4002L32.4228 38.4002ZM32.4466 34.8933L32.0494 35.0401H32.0491C31.8826 35.0461 31.7172 35.0764 31.5571 35.1311L23.4227 37.9592H18.9168L15.9821 36.0343L16.3971 35.8593H21.7272C21.7711 35.854 21.8148 35.8446 21.8577 35.8312V35.8452L29.7962 33.7034L31.8951 32.9753H31.8949C31.9716 32.9468 32.0516 32.9324 32.132 32.9334C32.6066 32.9337 32.9915 33.3878 32.9917 33.9484C32.9968 34.3675 32.7787 34.7456 32.4462 34.8934L32.4466 34.8933Z" fill="currentColor"/>
</svg>
