<svg width="44" height="33" viewBox="0 0 44 33" fill="none" xmlns="http://www.w3.org/2000/svg">
<path d="M16.8288 10.0389C17.5898 9.21849 18.6577 8.75199 19.7767 8.75137H24.4872C25.6062 8.75197 26.6742 9.21851 27.4351 10.0389C27.6258 9.61624 27.8595 9.21426 28.1329 8.83966C27.2957 8.06338 26.2322 7.57435 25.0979 7.44399C25.812 6.67072 26.1958 5.64965 26.1679 4.59759C26.1403 3.54554 25.7026 2.54608 24.9488 1.81187C24.1948 1.07767 23.1843 0.666992 22.1319 0.666992C21.0795 0.666992 20.069 1.07765 19.3149 1.81187C18.5612 2.54608 18.1235 3.54554 18.0959 4.59759C18.0679 5.64965 18.4518 6.67072 19.1659 7.44399C18.0316 7.57437 16.9681 8.06344 16.1309 8.83966C16.4042 9.21427 16.638 9.61624 16.8287 10.0389H16.8288ZM22.132 2.02236C22.8457 2.02236 23.5304 2.30595 24.0353 2.81064C24.54 3.31562 24.8236 4.00027 24.8236 4.71403C24.8236 5.42778 24.54 6.11246 24.0353 6.61742C23.5304 7.12211 22.8457 7.40569 22.132 7.40569C21.4182 7.40569 20.7335 7.12211 20.2286 6.61742C19.7239 6.11243 19.4403 5.42778 19.4403 4.71403C19.4412 4.00026 19.7251 3.31621 20.2295 2.81156C20.7342 2.30717 21.4182 2.02328 22.132 2.02236Z" fill="#181717"/>
<path d="M38.8926 7.44228C39.6064 6.669 39.9901 5.64793 39.9618 4.59618C39.9338 3.54413 39.4961 2.54498 38.7421 1.81077C37.9881 1.07687 36.9775 0.666196 35.9252 0.666504C34.8731 0.666504 33.8626 1.07747 33.1088 1.81169C32.3548 2.54589 31.9174 3.54536 31.8898 4.59711C31.8618 5.64886 32.2457 6.67023 32.9595 7.4432C31.7275 7.58559 30.5821 8.14886 29.7172 9.03774C28.852 9.92668 28.32 11.0866 28.2109 12.3221C28.7129 11.6315 29.3714 11.0697 30.1323 10.6822C30.8644 9.48417 32.1664 8.75266 33.5705 8.75089H38.2809C39.3513 8.75209 40.3775 9.17777 41.1345 9.93484C41.8915 10.6919 42.3172 11.7181 42.3184 12.7884L42.3193 18.8446H40.2997V16.8259C40.2997 16.4543 39.9983 16.153 39.6267 16.153C39.2551 16.153 38.9538 16.4543 38.9538 16.8259V18.1823C39.305 18.4478 39.6294 18.747 39.923 19.0754C39.9632 19.1201 40.0035 19.1652 40.0428 19.2111C40.127 19.3103 40.2096 19.4106 40.288 19.5145H40.2877C40.452 19.7305 40.6028 19.9562 40.7395 20.1905H42.3184C42.6753 20.1902 43.0175 20.0481 43.2695 19.7957C43.5218 19.5437 43.6639 19.2015 43.6642 18.8447V12.7884C43.6624 11.4675 43.1752 10.1932 42.2956 9.20756C41.416 8.22195 40.205 7.59379 38.8925 7.44237L38.8926 7.44228ZM35.9258 2.02172C36.6396 2.02172 37.3242 2.30531 37.8292 2.80999C38.3339 3.31498 38.6175 3.99963 38.6175 4.71339C38.6175 5.42714 38.3339 6.11182 37.8292 6.61678C37.3242 7.12147 36.6395 7.40505 35.9258 7.40505C35.212 7.40505 34.5274 7.12147 34.0224 6.61678C33.5177 6.11179 33.2341 5.42714 33.2341 4.71339C33.235 3.99962 33.5189 3.31557 34.0233 2.81092C34.528 2.30653 35.212 2.02264 35.9258 2.02172Z" fill="#181717"/>
<path d="M4.21943 19.2111C4.25849 19.1652 4.29874 19.1201 4.3393 19.0753H4.339C4.63249 18.747 4.95694 18.4478 5.30815 18.1823V16.8259C5.30815 16.4543 5.00684 16.153 4.63523 16.153C4.26363 16.153 3.96232 16.4543 3.96232 16.8259V18.8446H1.94357V12.7884C1.94477 11.718 2.37045 10.6918 3.12752 9.93483C3.88458 9.17786 4.91078 8.75212 5.98107 8.75089H10.6915C12.0956 8.75269 13.3976 9.48419 14.1297 10.6822C14.8906 11.0697 15.5491 11.6315 16.0511 12.3221C15.942 11.0866 15.41 9.92668 14.5448 9.03774C13.6799 8.1488 12.5344 7.58555 11.3025 7.4432C12.0163 6.67023 12.4002 5.64886 12.3722 4.59711C12.3446 3.54536 11.9072 2.5459 11.1531 1.81169C10.3994 1.07749 9.38887 0.666504 8.33681 0.666504C7.28445 0.666204 6.27392 1.07686 5.51987 1.81108C4.76584 2.54498 4.32815 3.54413 4.30024 4.59618C4.272 5.64793 4.65562 6.669 5.36937 7.44227C4.05691 7.59368 2.84597 8.22186 1.96633 9.20747C1.08669 10.1931 0.599502 11.4675 0.597656 12.7883V18.8446C0.597957 19.2014 0.740053 19.5436 0.992393 19.7956C1.24443 20.048 1.5866 20.1901 1.94347 20.1904H3.52241C3.65909 19.9561 3.8099 19.7304 3.97422 19.5145C4.05263 19.4108 4.13524 19.3102 4.21936 19.211L4.21943 19.2111ZM8.33622 2.02138C9.04999 2.02138 9.73466 2.30497 10.2396 2.80965C10.7443 3.31464 11.0279 3.99929 11.0279 4.71305C11.0279 5.4268 10.7443 6.11148 10.2396 6.61644C9.73463 7.12113 9.04998 7.40471 8.33622 7.40471C7.62247 7.40471 6.93779 7.12113 6.43283 6.61644C5.92814 6.11145 5.64456 5.4268 5.64456 4.71305C5.64546 3.99928 5.92934 3.31523 6.43375 2.81058C6.93844 2.30619 7.62247 2.0223 8.33622 2.02138Z" fill="#181717"/>
<path d="M35.5298 18.2089C36.2436 17.4359 36.6273 16.4145 36.599 15.3628C36.571 14.311 36.1333 13.3116 35.3796 12.5777C34.6256 11.8438 33.615 11.4331 32.5627 11.4331C31.5106 11.4331 30.5001 11.8438 29.746 12.578C28.9923 13.3119 28.5549 14.3113 28.527 15.3631C28.499 16.4151 28.8826 17.4362 29.5964 18.2092C28.8634 18.2936 28.1557 18.5285 27.5176 18.8992C27.9862 19.1362 28.4257 19.427 28.827 19.7659C29.2689 19.6025 29.7364 19.5184 30.2077 19.5175H34.9181C35.9885 19.5187 37.0147 19.9444 37.7717 20.7015C38.5286 21.4585 38.9544 22.4847 38.9556 23.555L38.9565 29.6113H36.9369V27.5925C36.9369 27.2209 36.6355 26.9196 36.2639 26.9196C35.8923 26.9196 35.591 27.2209 35.591 27.5925V29.6113H31.2171V30.9571H38.9552C39.3121 30.9568 39.6543 30.8147 39.9063 30.5623C40.1586 30.3103 40.3007 29.9681 40.301 29.6113V23.555C40.2992 22.2341 39.812 20.9598 38.9324 19.9742C38.0528 18.9886 36.8418 18.3604 35.5293 18.209L35.5298 18.2089ZM32.563 12.7883C33.2768 12.7883 33.9614 13.0719 34.4664 13.5766C34.9711 14.0816 35.2547 14.7662 35.2547 15.48C35.2547 16.1937 34.9711 16.8784 34.4664 17.3834C33.9614 17.8881 33.2767 18.1717 32.563 18.1717C31.8492 18.1717 31.1646 17.8881 30.6596 17.3834C30.1549 16.8784 29.8713 16.1937 29.8713 15.48C29.8722 14.7662 30.1561 14.0822 30.6605 13.5775C31.1652 13.0731 31.8492 12.7892 32.563 12.7883Z" fill="#181717"/>
<path d="M9.3463 19.5175H14.0567C14.5281 19.5184 14.9955 19.6025 15.4374 19.7659C15.8387 19.4271 16.2783 19.1363 16.7468 18.8992C16.1088 18.5285 15.401 18.2936 14.668 18.2092C15.3818 17.4362 15.7655 16.4152 15.7375 15.3631C15.7095 14.3113 15.2721 13.3119 14.5184 12.578C13.7643 11.8438 12.7538 11.4331 11.7017 11.4331C10.6494 11.4331 9.63885 11.8438 8.88479 12.5777C8.13107 13.3116 7.69339 14.311 7.66547 15.3628C7.63723 16.4145 8.02085 17.4359 8.7346 18.2089C7.42214 18.3603 6.2112 18.9885 5.33156 19.9741C4.45193 20.9597 3.96474 22.2341 3.96289 23.5549V29.6112C3.96319 29.968 4.10529 30.3102 4.35763 30.5622C4.60967 30.8146 4.95184 30.9567 5.30871 30.957H13.0469V29.6111H8.67291V27.5924C8.67291 27.2208 8.37159 26.9195 7.99999 26.9195C7.62839 26.9195 7.32707 27.2208 7.32707 27.5924V29.6111H5.30832V23.5549C5.30953 22.4845 5.73521 21.4583 6.49227 20.7013C7.24934 19.9444 8.27554 19.5186 9.34582 19.5174L9.3463 19.5175ZM11.7015 12.7883C12.4153 12.7883 13.0999 13.0719 13.6049 13.5766C14.1096 14.0816 14.3932 14.7663 14.3932 15.48C14.3932 16.1938 14.1096 16.8784 13.6049 17.3834C13.0999 17.8881 12.4153 18.1717 11.7015 18.1717C10.9878 18.1717 10.3031 17.8881 9.79812 17.3834C9.29343 16.8784 9.00984 16.1938 9.00984 15.48C9.01074 14.7662 9.29463 14.0822 9.79904 13.5775C10.3037 13.0731 10.9878 12.7893 11.7015 12.7883Z" fill="#181717"/>
<path d="M25.0979 19.5546C25.8117 18.7816 26.1954 17.7602 26.1671 16.7085C26.1391 15.6567 25.7014 14.6576 24.9478 13.9234C24.1937 13.1895 23.1832 12.7788 22.1311 12.7788C21.0791 12.7788 20.0685 13.1895 19.3145 13.9234C18.5608 14.6576 18.1231 15.6567 18.0952 16.7085C18.0669 17.7602 18.4505 18.7816 19.1643 19.5546C17.8518 19.706 16.6409 20.3342 15.7613 21.3198C14.8816 22.3054 14.3944 23.5798 14.3926 24.9006V30.9569C14.3929 31.3137 14.535 31.6559 14.7873 31.9079C15.0394 32.1603 15.3815 32.3024 15.7384 32.3027H28.5238C28.8807 32.3024 29.2229 32.1603 29.4749 31.9079C29.7272 31.6559 29.8693 31.3137 29.8696 30.9569V24.9006C29.8678 23.5797 29.3806 22.3054 28.501 21.3198C27.6213 20.3342 26.4104 19.706 25.0979 19.5546H25.0979ZM22.1311 14.134C22.8449 14.134 23.5296 14.4176 24.0345 14.9223C24.5392 15.4273 24.8228 16.1119 24.8228 16.8257C24.8228 17.5394 24.5392 18.2241 24.0345 18.7291C23.5295 19.2338 22.8449 19.5174 22.1311 19.5174C21.4174 19.5174 20.7327 19.2338 20.2277 18.7291C19.723 18.2241 19.4395 17.5394 19.4395 16.8257C19.4404 16.1119 19.7242 15.4279 20.2287 14.9232C20.7333 14.4188 21.4174 14.1349 22.1311 14.134ZM28.5248 30.9569H26.5051V28.9382C26.5051 28.5666 26.2038 28.2653 25.8322 28.2653C25.4606 28.2653 25.1592 28.5666 25.1592 28.9382V30.9569H19.103V28.9382C19.103 28.5666 18.8017 28.2653 18.4301 28.2653C18.0585 28.2653 17.7572 28.5666 17.7572 28.9382V30.9569H15.7384V24.9007C15.7396 23.8303 16.1653 22.8041 16.9224 22.0471C17.6794 21.2902 18.7056 20.8644 19.7759 20.8632H24.4863C25.5567 20.8644 26.5829 21.2901 27.3399 22.0471C28.0969 22.8042 28.5226 23.8304 28.5238 24.9007L28.5248 30.9569Z" fill="#181717"/>
</svg>
